<svg xmlns="http://www.w3.org/2000/svg" xml:space="preserve" width="1000" height="1000" shape-rendering="geometricPrecision" text-rendering="geometricPrecision" image-rendering="optimizeQuality" fill-rule="evenodd" clip-rule="evenodd" viewBox="0 0 61.47 61.47"><path fill-rule="nonzero" d="M9.22 3.35h2.52V1.36h1.33v1.99h3.39V1.36h1.34v1.99h4.15V1.36h1.34v1.99h4.16V1.36h1.34v1.99h3.88V1.36h1.34v1.99h4.15V1.36h1.34v1.99h3.89V1.36h1.34v1.99h3.8V1.36h1.34v1.99h2.38c1.66 0 3.16.68 4.25 1.77a5.994 5.994 0 0 1 1.77 4.25v44.71c0 1.66-.68 3.16-1.77 4.26a6.012 6.012 0 0 1-4.25 1.77H9.22c-1.66 0-3.17-.68-4.26-1.77a6.017 6.017 0 0 1-1.77-4.26V9.37c0-1.65.68-3.16 1.77-4.25h.01a5.994 5.994 0 0 1 4.25-1.77zm39.01 18.88h5.96v6.43h-6.43v-6.43h.47zm5.02.93h-4.56v4.57h4.56v-4.57zm-20.86-.93h5.96v6.43h-6.43v-6.43h.47zm5.02.93h-4.55v4.57h4.55v-4.57zm2.9-.93h5.96v6.43h-6.43v-6.43h.47zm5.02.93h-4.56v4.57h4.56v-4.57zm-20.86-.93h5.96v6.43H24v-6.43h.47zm5.02.93h-4.55v4.57h4.55v-4.57zm-12.94-.93h5.96v6.43h-6.43v-6.43h.47zm5.02.93h-4.55v4.57h4.55v-4.57zm10.82 22.73h5.96v6.44h-6.43v-6.44h.47zm5.02.94h-4.55v4.56h4.55v-4.56zm-12.94-.94h5.96v6.44H24v-6.44h.47zm5.02.94h-4.55v4.56h4.55v-4.56zm-12.94-.94h5.96v6.44h-6.43v-6.44h.47zm5.02.94h-4.55v4.56h4.55v-4.56zm-12.94-.94h5.96v6.44H8.16v-6.44h.47zm5.02.94H9.1v4.56h4.55v-4.56zM48.23 38h5.96v6.44h-6.43V38h.47zm5.02.94h-4.56v4.56h4.56v-4.56zM32.39 38h5.96v6.44h-6.43V38h.47zm5.02.94h-4.55v4.56h4.55v-4.56zm2.9-.94h5.96v6.44h-6.43V38h.47zm5.02.94h-4.56v4.56h4.56v-4.56zM24.47 38h5.96v6.44H24V38h.47zm5.02.94h-4.55v4.56h4.55v-4.56zM16.55 38h5.96v6.44h-6.43V38h.47zm5.02.94h-4.55v4.56h4.55v-4.56zM8.63 38h5.96v6.44H8.16V38h.47zm5.02.94H9.1v4.56h4.55v-4.56zm34.58-8.83h5.96v6.44h-6.43v-6.44h.47zm5.02.94h-4.56v4.56h4.56v-4.56zm-20.86-.94h5.96v6.44h-6.43v-6.44h.47zm5.02.94h-4.55v4.56h4.55v-4.56zm2.9-.94h5.96v6.44h-6.43v-6.44h.47zm5.02.94h-4.56v4.56h4.56v-4.56zm-20.86-.94h5.96v6.44H24v-6.44h.47zm5.02.94h-4.55v4.56h4.55v-4.56zm-12.94-.94h5.96v6.44h-6.43v-6.44h.47zm5.02.94h-4.55v4.56h4.55v-4.56zm-12.94-.94h5.96v6.44H8.16v-6.44h.47zm5.02.94H9.1v4.56h4.55v-4.56zM50.56 8.08c.56 0 1.07.23 1.44.6.37.37.6.88.6 1.45 0 .56-.23 1.08-.6 1.45a2.04 2.04 0 0 1-2.89 0c-.37-.37-.6-.89-.6-1.45 0-.57.23-1.08.6-1.45.37-.37.88-.6 1.45-.6zm.97 1.07c-.25-.24-.59-.4-.97-.4-.39 0-.73.16-.98.4-.25.25-.4.6-.4.98s.15.72.4.97.59.41.98.41c.38 0 .72-.16.97-.41.25-.25.4-.59.4-.97s-.15-.73-.4-.98zM10.69 8.08c.57 0 1.08.23 1.45.6.37.37.6.88.6 1.45 0 .56-.23 1.08-.6 1.45a2.04 2.04 0 0 1-2.89 0c-.37-.37-.6-.89-.6-1.45 0-.57.23-1.08.6-1.45.37-.37.88-.6 1.44-.6zm.98 1.07c-.25-.24-.6-.4-.98-.4s-.72.16-.97.4c-.25.25-.4.6-.4.98s.15.72.4.97.59.41.97.41.73-.16.98-.41c.25-.25.4-.59.4-.97s-.15-.73-.4-.98zm38.2-4.46V6.5h-1.34V4.69h-3.8V6.5h-1.34V4.69H39.5V6.5h-1.34V4.69h-4.15V6.5h-1.34V4.69h-3.88V6.5h-1.34V4.69h-4.16V6.5h-1.34V4.69H17.8V6.5h-1.34V4.69h-3.39V6.5h-1.33V4.69H9.22c-1.29 0-2.46.52-3.31 1.37-.85.85-1.38 2.02-1.38 3.31v5.73h52.4V9.37c0-1.29-.52-2.46-1.37-3.31a4.705 4.705 0 0 0-3.31-1.37h-2.38zm7.06 11.75H4.53v37.64c0 1.29.53 2.46 1.38 3.31.85.85 2.02 1.38 3.31 1.38h43.03c1.29 0 2.46-.53 3.31-1.38.85-.85 1.37-2.02 1.37-3.31V16.44z"/><path fill="none" d="M0 0h61.47v61.47H0z"/></svg>