<svg xmlns="http://www.w3.org/2000/svg" xml:space="preserve" width="1000" height="1000" shape-rendering="geometricPrecision" text-rendering="geometricPrecision" image-rendering="optimizeQuality" fill-rule="evenodd" clip-rule="evenodd" viewBox="0 0 154.62 154.62"><path fill-rule="nonzero" d="m49.06 152.46-18.12-.02-.23-1.44c-.02-.1-5.96-36.21 14.68-55.61-.42-10.25-.65-20.19-.48-28.09.1-4.21.32-7.87.7-10.74-.54-3.26-8.86-56.92 39.26-54.31 13.85.75 23.64 6.27 29.98 13.99 4.64 5.65 7.4 12.47 8.52 19.44 1.13 6.94.63 14.05-1.26 20.29-2.57 8.53-7.72 15.52-14.87 18.49-1.93 3.44-3.87 6.1-4.96 7.51 4.17 5.36 22.4 29.68 22.41 45.09l.02 25.36c-25.22.01-50.44.04-75.65.04zm-15.19-3.42 14.9.02c-.5-6.28-2.18-27.67-3.18-49.03-14.67 16.27-12.5 42.62-11.72 49.01zm53.26-47.61-2.72 23.94 1.08 1.09h8.77l4.29-43.75.19-.23c4.53-5.3 7.76-12.6 9.68-19.37 2.74-9.68-.03-23.55-.04-23.59l-.02-.2c-.01-.04-.81-14.43-24.85-15.28-19.17-.67-25.36 12.31-29.82 21.68-1.24 2.59-2.35 4.93-3.62 6.78-1.06 1.54-1.59 7.12-1.76 14.86-.18 8.02.07 18.21.51 28.7.96 22.66 2.87 46.74 3.38 53l32.76-.02-.64-7.1c-5.65-.53-25.66-3.54-29.61-20-3.47-14.48 3.39-11.51 9.46-6.79-1.51-6.88-4.05-19.64-4.84-30.89-.61-8.66-.58-17.76.94-25.38 1.59-7.95 4.82-14.35 10.61-17.18 20.08-9.82 27.6-1.1 28.69.39 1.61 1.48 13.82 13.52-.1 27.01-1.48 1.43-3.86 3.56-6.59 5.71-.38 3.64-2.21 19.83-5.75 26.62zm-5.8 20.89 1.95-17.16c-5.06 2.3-13.42 1.22-17.58.47.6 3.18 1.19 6.03 1.68 8.29.37-1.56 1.55-2.13 4.29-.25 2.17 1.49 6.37 5.44 9.66 8.65zm20.25-35.68-3.9 39.82c4.3 0 8.6-.03 12.9-.02 1 0 1.82.16 2.36 1.11.76 1.37-.92 2.23-2.09 2.34-1.03.1-2.64-.02-3.76-.02H86.64l1.73 19.17 32.93-.02v-21.96c-.01-12.63-13.7-32.35-19.72-40.42zm-18.14 14.29c3.02-3.83 4.92-16.83 5.71-23.36-.71.48-1.42.95-2.13 1.39-1.72 1.08-3.45 2-5.1 2.66.51 3.37 1.17 11.53-3.84 13.97l-.04.02c-6.81 3.47-11.64-.55-14.7-5.2.46 3.97 1.07 7.95 1.71 11.64 3.63.76 15.27 2.84 18.39-1.12zm-25.42 20.22c3.3 13.76 20.19 16.73 25.98 17.34l-.86-9.55c-1.98-2-10.28-10.33-13.39-12.46-.62-.28 2.44 5.94 2.53 6.39.17.89-.57 1.8-1.5 1.92-1.38.18-1.76-.66-2.61-1.51-1.97-1.96-12.41-12.04-10.24-2.5l.09.37zm4.5-40.59c.54 1.8 5.21 16.52 14.02 12l.04-.02c2.9-1.38 2.47-7.08 2.05-9.97-.46.07-.9.1-1.32.1h-.14l-.17-.03c-2.46-.45-5.1-2.48-6.57-4.42-2.58-3.38-3.32-7.78-3.25-11.94.03-1.24.28-3.3 2.01-3.05 1.86.26 1.38 2.75 1.4 4.05.05 4.57 1.58 10.03 6.3 11.8.19.07.38.13.57.18 2.07-.06 4.88-1.39 7.77-3.19 4.73-2.95 9.51-7.12 11.87-9.41 12.17-11.79.1-22.13.06-22.16l-.18-.16-.13-.2c-.01-.02-5.39-8.73-24.48.61-4.68 2.29-7.36 7.83-8.75 14.79-1.26 6.3-1.45 13.71-1.1 21.02zM84.69 5.65c-34.82-1.89-37.2 28.93-36.43 43.31.75-1.35 1.52-2.97 2.35-4.71 4.86-10.2 11.61-24.36 33.02-23.6 25.92.91 27.98 16.85 28.12 18.31.23 1.25 2.78 15.06-.06 25.07a41.34 41.34 0 0 1-1.75 4.95c4.1-3.16 7.15-8.15 8.91-13.98 1.74-5.79 2.2-12.36 1.17-18.79-1.04-6.4-3.56-12.65-7.8-17.81-5.77-7.03-14.75-12.06-27.53-12.75zm40.02 145.07v.01-.01z"/><path fill="none" d="M0 0h154.62v154.62H0z"/></svg>