<svg xmlns="http://www.w3.org/2000/svg" xml:space="preserve" width="1000" height="1000" shape-rendering="geometricPrecision" text-rendering="geometricPrecision" image-rendering="optimizeQuality" fill-rule="evenodd" clip-rule="evenodd" viewBox="0 0 87.96 87.96"><path fill-rule="nonzero" d="M32.1 16.72h50.62a3.94 3.94 0 0 1 3.94 3.95v47.15c0 1.09-.44 2.08-1.15 2.79-.72.71-1.71 1.16-2.79 1.16H50.66l.34.8c.89 2.18 1.51 4.28 1.57 6.03.07 2.01-.56 3.59-2.24 4.4l-.21.09c-3.91 1.6-9.69 2.93-14.82 2.93-4.15 0-7.93-.88-10.11-3.16C9.21 66.06 3.25 51.53 1.73 40.06.2 28.54 3.13 20.13 4.89 15.61l.07-.18.13-.14c.02-.02 7.57-8.09 13.25-11.64 6.33-3.96 9.47.23 9.48.24l.1.14 4.18 12.69zm50.5 1.97H32.68c.49 1.93 1.2 5.51.09 6.93-.55.72-2.49 1.45-4.84 2.12l-.06.02 21.19 21.19c.45.45 1.04.67 1.64.67.6 0 1.19-.22 1.65-.67L82.6 18.69zm2.09 1.98c0-.37-.1-.71-.27-1L59.49 44.6l24.62 24.62v-.01c.36-.35.58-.85.58-1.39V20.67zM49.74 69.79h32.15l-23.8-23.8-4.35 4.35c-.84.84-1.94 1.26-3.04 1.26s-2.2-.42-3.04-1.26l-4.35-4.35-15.65 15.66c.32.29.6.51.79.66l14.39-3.97.4.56c.01.02 3.77 5.33 6.5 10.89zm-3.41 12.54-4.59-12.79 1.85-.66 4.61 12.84c.41-.15.8-.3 1.17-.45l.12-.05c.85-.41 1.16-1.33 1.11-2.55-.05-1.5-.61-3.37-1.42-5.35-.27-.67-.59-1.38-.94-2.12-2.17-4.55-5.16-9.05-6.22-10.6l-13.96 3.86-.38-.27c-.04-.03-15.81-10.88-11.79-35.16l.12-.74.75-.08.78-.13c1.89-.34 6.4-1.26 9.85-2.24 2-.56 3.56-1.09 3.83-1.43.86-1.12-.67-6.09-.77-6.4L26.16 4.97c-.38-.41-1.89-1.71-4.81-.64l3.77 13.11-1.9.54-3.67-12.77-.17.11C14.34 8.46 7.67 15.43 6.65 16.5c-1.69 4.39-4.42 12.41-2.97 23.31 1.48 11.11 7.29 25.25 22.94 41.69 1.75 1.84 5.02 2.54 8.68 2.54 3.67 0 7.69-.71 11.03-1.71zM26.22 60.29l15.7-15.69-16.26-16.26c-3.01.75-6.23 1.4-7.77 1.68l-.17.03c-2.48 16.41 4.5 26.14 8.5 30.24zM81.1 34.24v20.53h-1.98V34.24h1.98zM39.39 22.46h22.62v1.98H39.39v-1.98z"/><path fill="none" d="M0 0h87.96v87.96H0z"/></svg>