<svg xmlns="http://www.w3.org/2000/svg" xml:space="preserve" width="1000" height="1000" shape-rendering="geometricPrecision" text-rendering="geometricPrecision" image-rendering="optimizeQuality" fill-rule="evenodd" clip-rule="evenodd" viewBox="0 0 110.48 110.48"><path fill-rule="nonzero" d="m66.47 53.85-6.66 6.57-5.23 9.6c.02.02 4.43 6.22 15.62 6.52l2.43-6.47-4.01-2.79 1.4-2.02 7.91 5.51h17.36l-3.18-9.13-11.14 3.97c-2.14-2.19-4.26-4.42-6.42-6.58l-.01-.02-4.25-4.36c-.63-.33-3.07-1.54-3.82-.8zm-12.7 12.54-43.36 42.82-9.63-9.92 61.67-61.3-27.91-26.85 9.68-9.88 28.13 26.89 25.5-25.34 10.99 9.2-26.25 25.92 27.1 25.91-9.74 10.28-1.39-1.44.19.55H77.16l-2.45-1.71-2.41 6.4c.18 1.22 1.2 6.32 5.82 10.51 6.62 6.01-3.1 14.86-3.12 14.89l-1.66-1.81c.02-.02 7.75-7.07 3.12-11.27-4.53-4.11-6.01-9.09-6.46-11.25-9.68-.3-14.88-4.76-16.67-6.67l-3.14 5.77-.11 20.34-1.05.14c-.05.01-15.26 2.09-17.26 7.67h18.34l7.69-9.28-.68-7.51 2.44-.22.77 8.52-7.03 8.49h8.43l4.45-9.41 2.22 1.05-3.96 8.36h6.6v2.46H29.09v-1.23c0-7.45 14.49-10.46 18.55-11.16l.1-18.85 6.03-11.07zm-43.33 39.34L64.75 52.1c.26-.25.55-.43.86-.57.45-11.01 9.02-12.95 13.89-13.16l-.43-.41 26.13-25.8-7.21-6.04-25.6 25.45L44.28 4.71l-6.25 6.37 27.93 26.88L4.23 99.32l6.21 6.41zm95.79-41.81-3.07-2.94c-3.13 2.97-5.63 3.85-7.28 4.02l.75 2.16 3.3 3.41 6.3-6.65zm-4.85-4.64-.98-.94-3.06.72c-.91.29-1.34.76-1.73 1.18-.32.34-.63.67-1.06.96l.5 1.43c.83.11 2.89-.11 6.33-3.35zm-3.1-2.96L85.33 43.94l-.05 12.48 4.27 3.53 4.06-1.45.07.21.13-.14c.61-.66 1.29-1.38 2.85-1.87l1.62-.38zM82.89 41.61l-.77-.74c-1.26-.11-5.34-.31-8.78 1.53.56.67 1.67.78 2.79.89.51.05 1.01.11 1.51.19l5.24-.2.01-1.67zm3.97 19.3-2.45-2.03-1.99 3.6 4.44-1.57zm-4.03-4.24.04-10.94-.44.02-.73 6.22-4.55 6.21 3.09 3.17 2.59-4.68zm-7.52-11c-1.6-.17-3.1-.46-4.02-1.82-1.71 1.58-2.99 3.95-3.21 7.5 1.34.21 2.62.78 3.22 1.07l.82-2.45 3.19-4.3zm2.85.27-3.84 5.18-.41 1.23 1.83 3.61 3.6-4.92.6-5.1h-1.78z"/><path fill="none" d="M0 0h110.48v110.48H0z"/></svg>