<svg xmlns="http://www.w3.org/2000/svg" xml:space="preserve" width="1000" height="1000" shape-rendering="geometricPrecision" text-rendering="geometricPrecision" image-rendering="optimizeQuality" fill-rule="evenodd" clip-rule="evenodd" viewBox="0 0 154.62 154.62"><path fill-rule="nonzero" d="M77.31 151.57h-37.9l29.88-16.32v-32.21l-.37-.16c-2.59-1.16-4.19-2.91-4.19-4.99 0-1.34.65-2.53 1.8-3.53.73-.63 1.67-1.18 2.76-1.64v-8.05c-5.27-.78-9.66-2.62-13.33-5.17-6.64-4.63-10.82-11.57-13.45-18.75-5.11-13.97-4.29-28.88-4.29-28.92l.08-1.65h18.06c-.17-.55-.32-1.11-.44-1.67a21.2 21.2 0 0 1-.45-4.3c0-5.85 2.46-11.15 6.43-14.99 3.95-3.82 9.41-6.18 15.42-6.18 6.02 0 11.48 2.36 15.43 6.18 3.97 3.84 6.43 9.14 6.43 14.99 0 1.46-.16 2.9-.45 4.3-.13.56-.27 1.12-.44 1.67h18.03l.07 1.66c.01.14 2.63 47.98-31.07 52.83v8.08l.32.14c2.59 1.16 4.19 2.91 4.19 5 0 2.08-1.6 3.83-4.19 4.99l-.32.14v32.23l29.89 16.32h-37.9zm-24.38-3.46h48.75L83.16 138H71.45l-18.52 10.11zm19.82-44.07v30.5h9.11v-30.51c-1.41.28-2.96.43-4.58.43-1.6 0-3.13-.15-4.53-.42zm-30.8-62.49h20.74v3.46H42.32c.2 1.56.46 3.2.79 4.9h68.41c.32-1.69.58-3.34.78-4.9H68.47v-3.46h44.21c.3-3.44.33-6.25.31-7.91H41.62c-.02 1.66.02 4.46.33 7.91zm68.81 11.81H43.87c.51 2.06 1.13 4.15 1.89 6.22 2.4 6.58 6.2 12.92 12.17 17.08 4.82 3.36 11.11 5.33 19.29 4.91h.17c21.33 1.1 29.93-14.29 33.37-28.21zm-24.6-31h-7.12l-.01 7.82h15.63c.28-.77.51-1.57.69-2.39.24-1.14.37-2.34.37-3.58 0-4.88-2.05-9.3-5.36-12.5-3.33-3.22-7.94-5.21-13.04-5.21-5.09 0-9.7 1.99-13.03 5.21-3.31 3.2-5.36 7.62-5.36 12.5 0 1.24.13 2.44.37 3.58.17.82.41 1.62.69 2.39h15.6v-7.82h-7.12V18.9h7.13v-6.37h3.45l-.01 6.37h7.12v3.46zm-4.3 69.38v-6.73c-1.45.07-2.96.08-4.53.01-1.59.08-3.12.07-4.58-.01v6.71c.46-.08.94-.16 1.42-.22 1-.12 2.04-.19 3.11-.19 1.62 0 3.17.15 4.58.43zm2.37 4.29c-1.74-.78-4.2-1.26-6.95-1.26-.94 0-1.84.06-2.69.16-.87.11-1.69.27-2.44.47l-.61.17c-1.19.39-2.14.86-2.75 1.4-.39.33-.61.65-.61.92 0 .59.82 1.26 2.15 1.85 1.74.78 4.2 1.26 6.95 1.26s5.21-.48 6.95-1.26c1.33-.59 2.15-1.26 2.15-1.85 0-.6-.82-1.26-2.15-1.86z"/><path fill="none" d="M0 0h154.62v154.62H0z"/></svg>