<svg xmlns="http://www.w3.org/2000/svg" xml:space="preserve" width="1000" height="1000" shape-rendering="geometricPrecision" text-rendering="geometricPrecision" image-rendering="optimizeQuality" fill-rule="evenodd" clip-rule="evenodd" viewBox="0 0 115.36 115.36"><path fill-rule="nonzero" d="M39.19 93.85c.67.23 1.04.95.82 1.62-.22.67-.95 1.04-1.62.82L2.9 84.57c-.54-.18-.88-.68-.88-1.22V7.54c0-.71.57-1.28 1.28-1.28.17 0 .34.03.5.1l44.99 15.9L94.32 6.33c.66-.23 1.39.12 1.62.79.05.13.08.28.08.42v50.05c0 .71-.58 1.28-1.28 1.28-.71 0-1.28-.57-1.28-1.28V9.34L50.07 24.52l.22 33.07c.01.7-.56 1.28-1.27 1.28-.7 0-1.28-.57-1.28-1.27l-.22-33.07L4.58 9.35v73.08l34.61 11.42zm40.27-52.59c.66-.25 1.4.08 1.65.75.26.66-.08 1.4-.74 1.65l-16.2 6.2a1.28 1.28 0 0 1-.91-2.39l16.2-6.21zm0-12.06c.66-.25 1.4.08 1.65.74.26.66-.08 1.4-.74 1.65l-16.2 6.21a1.28 1.28 0 0 1-.91-2.39l16.2-6.21zM17.54 55.72a1.28 1.28 0 0 1 .91-2.39l8.61 3.29c.66.25.99.99.74 1.65-.26.66-.99.99-1.66.74l-8.6-3.29zm0-12.06a1.28 1.28 0 0 1-.74-1.65c.25-.67.99-1 1.65-.75l16.2 6.21c.66.25 1 .99.74 1.65-.25.66-.99.99-1.65.74l-16.2-6.2zm0-12.07a1.28 1.28 0 0 1 .91-2.39l16.2 6.21c.66.25 1 .99.74 1.65-.25.66-.99.99-1.65.74l-16.2-6.21zM50.2 79.16l.09 27.38h43.17V87.26c0-.71.57-1.28 1.28-1.28.7 0 1.28.57 1.28 1.28v20.56c0 .71-.58 1.28-1.28 1.28H49.02c-.71 0-1.28-.57-1.28-1.28l-.1-29.47-13.82-4.34a1.28 1.28 0 0 1-.84-1.61c.13-.41.45-.72.84-.84l37.62-11.83c.25-.08.52-.07.76 0l37.55 11.81c.55.14.97.64.97 1.24v15.5a3.902 3.902 0 0 1 2.62 3.69 3.893 3.893 0 0 1-3.9 3.9 3.9 3.9 0 0 1-2.77-1.14c-.7-.71-1.14-1.69-1.14-2.76 0-1.03.4-1.98 1.06-2.68l.08-.08c.42-.42.92-.74 1.49-.93V74.53L72.2 85.84c-.26.08-.52.07-.76 0L50.2 79.16zm33.49-13.13-11.87-3.74-33.36 10.49 33.36 10.5 33.35-10.5-21.48-6.75zm25.75 24.59c-.37 0-.71.15-.95.4l-.05.05c-.22.23-.35.55-.35.9 0 .37.15.71.39.95.25.24.59.39.96.39s.71-.15.95-.39c.24-.24.39-.58.39-.95 0-.34-.12-.64-.31-.87-.2-.24-.48-.4-.8-.46l-.11-.02h-.12z"/><path fill="none" d="M0 0h115.36v115.36H0z"/></svg>