<svg xmlns="http://www.w3.org/2000/svg" xml:space="preserve" width="1000" height="1000" shape-rendering="geometricPrecision" text-rendering="geometricPrecision" image-rendering="optimizeQuality" fill-rule="evenodd" clip-rule="evenodd" viewBox="0 0 87.69 87.69"><path fill-rule="nonzero" d="M11.66 1.46h64.37a4.7 4.7 0 0 1 3.3 1.37c.84.85 1.36 2.01 1.36 3.3v75.44a4.657 4.657 0 0 1-4.66 4.66H11.66c-1.28 0-2.45-.52-3.29-1.37A4.616 4.616 0 0 1 7 81.57V6.13c0-1.29.52-2.45 1.37-3.3.84-.84 2.01-1.37 3.29-1.37zm8.87 1.95v80.87h55.5c.75 0 1.43-.3 1.92-.79.49-.5.8-1.18.8-1.92V6.13c0-.75-.31-1.43-.8-1.92-.49-.49-1.17-.8-1.92-.8h-55.5zm-1.95 80.87V3.41h-6.92c-.74 0-1.42.31-1.91.8-.5.49-.8 1.17-.8 1.92v75.44c0 .74.3 1.42.8 1.92a2.7 2.7 0 0 0 1.91.79h6.92z"/><path fill-rule="nonzero" d="M61.72 32.65v6.72H50.57v23.52h-7.7V39.37H31.72v-7.69h11.15V21.29h7.7v10.39h11.15v.97zm-1.94 4.77v-3.8H48.62V23.24h-3.8v10.38H33.66v3.8h11.16v23.52h3.8V37.42h11.16z"/><path d="M28.19 6h3v3h-3zM35.49 6h3v3h-3zM42.79 6h3v3h-3zM50.09 6h3v3h-3zM57.39 6h3v3h-3zM64.69 6h3v3h-3zM71.99 6h3v3h-3zM28.19 79.07h3v3h-3zM35.49 79.07h3v3h-3zM42.79 79.07h3v3h-3zM50.09 79.07h3v3h-3zM57.39 79.07h3v3h-3zM64.69 79.07h3v3h-3zM71.99 79.07h3v3h-3zM74.992 27.11v3.014h-3.014V27.11zM74.992 34.41v3.015h-3.014V34.41zM74.992 41.711v3.014h-3.014v-3.014zM74.992 49.012v3.014h-3.014v-3.014zM74.992 56.312v3.015h-3.014v-3.015zM74.992 63.613v3.014h-3.014v-3.014zM74.992 70.913v3.015h-3.014v-3.014zM74.992 20.444v3.014h-3.014v-3.014zM74.992 13.777v3.014h-3.014v-3.014z"/><path fill="none" d="M0 0h87.69v87.69H0z"/></svg>