<svg xmlns="http://www.w3.org/2000/svg" xml:space="preserve" width="1000" height="1000" shape-rendering="geometricPrecision" text-rendering="geometricPrecision" image-rendering="optimizeQuality" fill-rule="evenodd" clip-rule="evenodd" viewBox="0 0 156.01 156.01"><path fill-rule="nonzero" d="M76.22 40.54C68.14 34.3 59.2 30.39 49.51 28.5c-9.58-1.87-19.93-1.75-30.92.07v83.01c11.32-2.29 21.84-2.59 31.61-1.06 9.35 1.48 18.01 4.64 26.02 9.37V40.54zm11.37 79.25c10-1.24 19.72-1.44 29.14-.53 11.63 1.13 22.79 3.95 33.46 8.63V35h-9.2l.01 78.78a1.795 1.795 0 0 1-2.33 1.71c-11.64-2.58-22.4-3.01-32.31-1.45-6.61 1.05-12.86 2.97-18.77 5.75zm53.4-88.37h10.98c.99 0 1.79.8 1.79 1.79v97.45a1.792 1.792 0 0 1-2.54 1.61c-11.05-5.19-22.68-8.28-34.82-9.46-12.17-1.18-24.88-.44-38.07 2.03l-.07.01h-.03l-.03.01h-.07l-.03.01h-.2l-.01-.01h-.09l-.03-.01h-.01l-.08-.01c-13.19-2.47-25.9-3.21-38.07-2.03-12.14 1.18-23.76 4.27-34.82 9.46-.89.41-1.95.03-2.37-.86-.11-.24-.16-.5-.16-.75l-.01-97.45c0-.99.8-1.79 1.79-1.79h10.97v-4.36c0-.85.62-1.61 1.49-1.76 11.95-2.13 23.22-2.35 33.68-.31C60.26 26.96 69.57 31 78.01 37.42c8.43-6.42 17.74-10.46 27.82-12.43 10.46-2.04 21.73-1.82 33.69.31.86.15 1.48.91 1.47 1.76v4.36zM106.5 28.5c-9.69 1.89-18.63 5.8-26.71 12.04v79.35c8.01-4.73 16.67-7.89 26.02-9.37 9.77-1.53 20.29-1.23 31.61 1.06V28.57c-10.99-1.82-21.33-1.94-30.92-.07zM15.01 35H5.82v92.89c10.67-4.68 21.84-7.5 33.46-8.63 9.42-.91 19.14-.71 29.14.53-5.91-2.78-12.16-4.7-18.76-5.75-9.92-1.56-20.67-1.13-32.32 1.45a1.795 1.795 0 0 1-2.33-1.71V35z"/><path fill="none" d="M0 0h156.01v156.01H0z"/></svg>