<svg xmlns="http://www.w3.org/2000/svg" xml:space="preserve" width="1000" height="1000" shape-rendering="geometricPrecision" text-rendering="geometricPrecision" image-rendering="optimizeQuality" fill-rule="evenodd" clip-rule="evenodd" viewBox="0 0 87.96 87.96"><path fill-rule="nonzero" d="M2.74 49.22h13.41v2.77c2.54.53 11.58 1.37 15.84-11.98 5.24-16.4 5.41-29.52 5.41-29.55a.99.99 0 0 1 .31-.69c.01-.01 3.5-3.16 6.27-.73 2.78-2.43 6.26.72 6.27.73.19.17.31.41.31.69 0 .03.17 13.15 5.41 29.55 4.27 13.35 13.3 12.51 15.84 11.98v-2.77h14.38v34.14H71.81v-7.52c-4.93.58-24.55 1.8-26.07-15.52l-.28-3.24c-.59-6.69-1.09-12.33-1.48-17.8-.39 5.47-.88 11.11-1.47 17.8l-.29 3.24c-1.52 17.32-21.13 16.1-26.07 15.52v7.52H1.78V49.22h.96zm69.07 4.73c-3.45.6-13.13.87-17.67-13.36-4.76-14.9-5.41-27.18-5.49-29.64-.69-.51-2.44-1.55-3.7-.14.01 18.6.91 28.81 2.43 46.11l.29 3.24c1.38 15.74 20 14.26 24.14 13.73V53.95zm12.44-2.8H73.74v30.28h10.51V51.15zm-68.1 2.8v19.94c4.14.53 22.77 2.01 24.15-13.73l.28-3.24c1.53-17.3 2.43-27.51 2.44-46.11-1.26-1.41-3.01-.37-3.7.14-.09 2.46-.73 14.74-5.49 29.64-4.55 14.23-14.23 13.96-17.68 13.36zm-1.93-2.8H3.71v30.28h10.51V51.15z"/><path fill="none" d="M0 0h87.96v87.96H0z"/></svg>