<svg xmlns="http://www.w3.org/2000/svg" xml:space="preserve" width="1000" height="1000" shape-rendering="geometricPrecision" text-rendering="geometricPrecision" image-rendering="optimizeQuality" fill-rule="evenodd" clip-rule="evenodd" viewBox="0 0 87.74 87.74"><path fill-rule="nonzero" d="M30.09 62.52c-.34-.21-.8-.21-1.26-.02-.57.22-1.12.68-1.52 1.33-.4.65-.57 1.36-.52 1.96.04.5.24.91.58 1.12.34.22.8.21 1.26.02.57-.22 1.12-.68 1.52-1.33.4-.65.57-1.35.52-1.96-.04-.5-.24-.91-.58-1.12zm37.22-5.61-6.07 5.85c.96 1.27 1.23 2.57 1.01 3.69a3.75 3.75 0 0 1-2.58 2.87c-.63.2-1.34.25-2.07.11.05.44.04.86-.04 1.26-.13.69-.45 1.31-.9 1.8s-1.02.87-1.68 1.08c-.62.19-1.31.25-2.03.11.05.42.03.83-.05 1.21-.13.69-.45 1.3-.9 1.8-.44.49-1.02.87-1.68 1.08-1.12.35-2.49.23-3.81-.6-.06-.04-.12-.09-.17-.14l-.86-.77c-.12.61-.36 1.24-.73 1.84-.64 1.02-1.53 1.77-2.47 2.14-1.03.4-2.12.37-3.02-.19-.91-.56-1.42-1.52-1.52-2.63-.03-.38-.01-.78.06-1.19-.07.03-.13.06-.2.09-1.03.4-2.12.38-3.03-.18-.9-.57-1.41-1.53-1.51-2.64-.02-.25-.02-.51 0-.78-.9.25-1.82.16-2.6-.32-.9-.56-1.42-1.53-1.51-2.64-.02-.27-.02-.56.01-.86-.91.26-1.84.18-2.63-.31-.9-.56-1.42-1.53-1.51-2.64-.08-.99.18-2.12.81-3.14l-6.07-5-.89.92a.99.99 0 0 1-1.39.02l-6.58-6.37a.98.98 0 0 1-.02-1.39l.56-.58L.88 39.72a.98.98 0 0 1 .02-1.39.98.98 0 0 1 1.39.02l10.1 10.42 15.14-15.3L2.46 8.91a.98.98 0 0 1-.01-1.39.98.98 0 0 1 1.39-.01l25.13 24.62.33-.35c.38-.39 1.01-.39 1.4-.02l6.57 6.37c.39.38.4 1 .02 1.39l-1.19 1.24c.85.85 2.56 1.21 4.74 1.2.42 0 .86-.02 1.31-.05.05-.01.1-.01.15-.01 2.6-.19 5.64-.84 8.71-1.79l-.57-.59a.98.98 0 0 1 .02-1.39l6.58-6.37a.99.99 0 0 1 1.39.02l.33.35L83.9 7.51a.98.98 0 0 1 1.39.01.99.99 0 0 1-.01 1.39L60.21 33.47l15.14 15.3 10.1-10.42c.38-.39 1-.4 1.39-.02.39.38.4 1 .02 1.39L76.5 50.41l.55.58a.99.99 0 0 1-.01 1.39l-6.58 6.37a.99.99 0 0 1-1.39-.02l-1.76-1.82zm-7.43 4.42 6.06-5.83-13.39-13.81c-3.47 1.14-6.96 1.92-9.96 2.16-1.24.7-8.45 4.82-9.32 6.74-.15.33-.2.67-.17 1.02.04.42.22.85.52 1.24.32.4.77.77 1.36 1.03.8.36 1.82.54 3.05.42 1.71-.16 2.8-.81 3.93-1.47 1.75-1.04 3.57-2.11 7.5-1.95.26.01.5.13.67.3l9.75 10.15zm-38.95-4.94 6.01 4.94c.37-.28.76-.51 1.16-.67.4-.15.8-.25 1.2-.27l.06-.06c.36-.41.98-.44 1.39-.07l13.32 12.06c.31.19.57.43.78.71l2.77 2.51c.77.46 1.51.54 2.11.35.32-.1.6-.28.82-.52.21-.23.35-.52.42-.85.12-.61-.06-1.37-.67-2.15l-6.74-6.76-2.69-2.62a.974.974 0 0 1-.08-1.32c.03-.05.07-.09.11-.13a.99.99 0 0 1 1.39 0l2.67 2.68 7.34 7.13c.76.46 1.5.53 2.09.34.32-.1.6-.28.81-.52.21-.23.36-.52.42-.85.12-.61-.05-1.37-.67-2.15l-9.39-9.42-.01-.02h-.01l-.01-.01v-.01l-.01-.01-.01-.01-.01-.01-.01-.01-.01-.01v-.01l-.02-.02-.01-.01v-.01l-.01-.01-.01-.01v-.01l-.01-.01-.01-.01v-.01l-.01-.01v-.01l-.01-.01-.01-.01v-.01l-.01-.01c-.01-.03-.02-.06-.04-.09v-.01l-.01-.01v-.02l-.01-.02v-.01l-.01-.01v-.03l-.01-.02v-.03l-.01-.02v-.03l-.01-.01v-.1l-.01-.02v-.05h.01v-.1l.01-.01V57.84l.01-.02v-.02h.01v-.03l.01-.01v-.03h.01v-.03l.01-.01v-.01l.01-.01v-.01l.01-.02.01-.02.01-.02v-.01l.01-.01v-.01l.01-.01v-.01l.01-.01.01-.01.01-.01v-.01l.01-.01v-.01l.01-.01.01-.01.01-.01v-.01l.01-.01.01-.01c.01-.02.03-.04.05-.06l.01-.01v-.01l.01-.01h.01l.01-.02h.01l.01-.01.01-.01.01-.01.01-.01.01-.01h.01l.02-.02.01-.01h.01l.01-.01.01-.01h.01l.01-.01.01-.01h.01l.01-.01h.01l.01-.01.01-.01h.01l.01-.01c.03-.01.06-.02.09-.04h.02l.02-.01.02-.01h.01l.01-.01H46l.02-.01h.03l.01-.01h.03l.02-.01h.27l.01.01h.05l.01.01h.04v.01h.03l.01.01h.03v.01h.02l.02.01h.01l.01.01h.01l.01.01h.01l.02.01.02.01.02.01h.01l.01.01h.01l.01.01.01.01.01.01h.01l.01.01h.01l.01.01.01.01.01.01h.01l.01.01.01.01c.02.01.04.03.06.05l.01.01h.01l.01.02 10.04 9.76c.76.45 1.5.52 2.09.34.32-.11.6-.29.81-.52.21-.24.36-.53.43-.85.12-.62-.06-1.38-.68-2.16L48.99 52.84c-3.08-.05-4.58.83-6.03 1.69-1.31.77-2.59 1.52-4.74 1.73-1.6.15-2.97-.09-4.05-.58-.89-.41-1.6-.97-2.11-1.63a4.38 4.38 0 0 1-.92-2.26c-.06-.68.05-1.37.34-2.01.76-1.68 4.54-4.25 7.3-5.97-1.72-.21-3.12-.74-4.05-1.64l-13.8 14.22zm21.98 17.54c-.33-.15-.74-.13-1.16.03-.56.23-1.11.69-1.52 1.34-.4.65-.57 1.35-.52 1.96.04.5.24.91.58 1.12.34.21.8.2 1.27.02.56-.22 1.11-.69 1.51-1.34.41-.65.58-1.35.53-1.95-.03-.3-.11-.57-.24-.78l-.45-.4zm-4.58-3.86c-.34-.22-.8-.21-1.26-.02-.57.22-1.12.68-1.52 1.33-.4.65-.57 1.35-.52 1.96.04.5.24.91.58 1.12.34.21.8.21 1.27.02.56-.22 1.11-.69 1.51-1.33.4-.66.57-1.36.52-1.96-.04-.5-.24-.91-.58-1.12zm-4.11-3.74c-.34-.21-.8-.21-1.27-.02-.56.22-1.11.68-1.51 1.33-.4.65-.57 1.36-.52 1.96.04.5.24.91.58 1.12.34.22.8.21 1.26.02.57-.22 1.12-.68 1.52-1.33.4-.65.57-1.35.52-1.96-.04-.5-.24-.91-.58-1.12zM53.5 39.85l.06.06 16.23 16.74 5.17-5L57.7 33.86l-5.16 5 .96.99zm-23.47-5.99L12.78 51.65l5.16 5L34.1 39.99l.04-.04 1.05-1.09-5.16-5z"/><path fill="none" d="M0 0h87.74v87.74H0z"/></svg>