<svg xmlns="http://www.w3.org/2000/svg" xml:space="preserve" width="1000" height="1000" shape-rendering="geometricPrecision" text-rendering="geometricPrecision" image-rendering="optimizeQuality" fill-rule="evenodd" clip-rule="evenodd" viewBox="0 0 154.62 154.62"><path fill-rule="nonzero" d="M77.33 22.91c-10.92 0-20.81 4.42-27.97 11.58S37.78 51.54 37.78 62.46c.1 11.05 4.47 20.88 11.57 27.98 7.09 7.1 16.93 11.46 27.98 11.57 11.05-.11 20.88-4.47 27.98-11.57 7.1-7.1 11.46-16.93 11.58-27.98-.01-10.92-4.44-20.81-11.6-27.97a39.387 39.387 0 0 0-27.96-11.58zm32.02 86.05 16.72 26.89c.51.82.26 1.9-.56 2.41-.49.3-1.07.33-1.57.13l-15.92-5.56-6.76 18.71a1.741 1.741 0 0 1-3.13.31l-19.52-32.69-19.53 32.69a1.741 1.741 0 0 1-3.13-.31l-6.76-18.71-15.92 5.56c-.5.2-1.08.17-1.57-.13a1.75 1.75 0 0 1-.56-2.41l16.38-26.33c-1.15-.15-2.36-.15-3.58-.15-3.79.01-7.65.03-11.05-3.52a9.381 9.381 0 0 1-2.48-4.65c-.37-1.79-.25-3.67.26-5.52.32-1.19.48-1.84.43-2.33-.05-.49-.33-1.15-.87-2.36-.1-.2-.17-.36-.25-.51l-.25-.42c-1.59-1.85-3.43-2.87-5.15-3.83-2.91-1.62-5.58-3.11-7.16-7.51-1.58-4.38.34-7.08 2.35-9.91 1.65-2.32 3.39-4.76 2.07-8.6-.1-.29-.19-.51-.29-.71-.13-.25-.26-.47-.42-.75l-.72-1.07c-1.87-2.77-2.99-4.44-3.23-8.63-.17-2.9.65-5.01 2.13-6.69 1.39-1.57 3.32-2.65 5.55-3.59l.07-.03c1.66-.66 2.85-1.29 3.67-2.15.8-.84 1.33-1.98 1.73-3.71.26-1.17.21-2.55.15-3.97-.13-3.21-.27-6.59 2.5-9.91.42-.51.83-.9 1.26-1.26.4-.33.82-.61 1.32-.95l.06-.04c3.18-1.96 5.75-1.43 8.16-.94 1.32.27 2.57.53 3.63.12 3.65-1.43 4.93-3.82 6.19-6.15 1.48-2.76 2.94-5.46 7.18-7.13 4.88-1.92 7.82.31 10.95 2.68l.11.09c.44.33.88.66 1.3.97 1.67 1.17 3.29 1.3 4.87.91l.07-.01c1.76-.44 3.61-1.54 5.4-2.62 1.56-.94 2.85-1.61 4.27-2.02 1.45-.41 2.95-.53 4.9-.34l.08.01c1.9.27 3.59 1.13 4.97 2.35 1.43 1.26 2.52 2.94 3.13 4.77.18.55.3.95.41 1.31.4 1.31.53 1.75 2.1 3.04 2.4 1.97 5 1.87 7.58 1.78 3.48-.12 6.96-.25 10.55 3.21 3.26 3.13 2.92 6.34 2.57 9.63-.33 3.16-.67 6.42 4.35 9.38l.56.31c3.52 1.93 6.86 3.77 8.34 8.31.73 2.23.59 4.3-.11 6.21-.68 1.81-1.87 3.42-3.3 4.84-.7.69-1.05 1.18-1.22 1.69-.2.58-.25 1.37-.3 2.54-.11 2.56 1.08 4.38 2.28 6.21 1.76 2.7 3.55 5.43 2.68 10.3-.5 2.85-1.81 4.7-3.62 6.02-1.68 1.22-3.7 1.9-5.9 2.5-.64.18-1.07.75-1.59 1.44l-.4.54c-1.84 2.43-1.73 4.91-1.63 7.39.13 3.14.27 6.27-2.4 9.69l-.09.11c-.67.83-1.34 1.44-2.1 1.94-.77.5-1.58.86-2.55 1.2l-.11.04c-.96.29-1.84.43-2.74.45-.87.03-1.71-.05-2.61-.18l-.62-.12c-.6-.11-1.12-.2-1.61-.26zM83 119.73l16.24 27.18 6.09-16.87c.31-.91 1.3-1.39 2.21-1.07l12.96 4.53-14.84-23.87-.07.03c-2.22 1.14-3.19 3.04-4.18 4.99-1.36 2.68-2.77 5.43-6.81 7.34-1.9.9-3.83 1.12-5.68.81-1.96-.34-3.81-1.27-5.43-2.63l-.19-.17-.3-.27zm-32.13-9L36.71 133.5l12.96-4.53c.91-.32 1.9.16 2.22 1.07l6.08 16.87 17.32-28.99c-1.15.42-2.16 1.1-3.26 1.84-.6.4-1.23.82-1.73 1.13-1.71 1.05-4.11 1.71-6.47 1.74-2.18.03-4.37-.46-6.05-1.65-2.89-2.03-3.52-4.1-4.13-6.12-.38-1.25-.75-2.46-1.98-3.48l-.75-.62-.05-.03zm76.4-69.58-.6-.33c-7.01-4.11-6.54-8.5-6.09-12.77.25-2.43.51-4.81-1.53-6.76-2.53-2.43-5.26-2.34-8.01-2.24-3.24.12-6.5.23-9.91-2.56-2.37-1.94-2.59-2.65-3.22-4.73-.11-.37-.24-.8-.38-1.23a7.74 7.74 0 0 0-2.14-3.26c-.88-.78-1.96-1.33-3.15-1.5-1.43-.13-2.52-.05-3.53.24-1.06.3-2.11.86-3.43 1.65-2.01 1.21-4.08 2.43-6.35 3.01l-.08.02c-2.5.61-5.07.4-7.71-1.46-.5-.35-.95-.7-1.4-1.04l-.11-.08c-2.33-1.76-4.52-3.42-7.58-2.21-3.05 1.2-4.2 3.34-5.38 5.53-1.56 2.89-3.15 5.86-7.99 7.75-2.01.78-3.76.42-5.59.05-1.76-.36-3.63-.75-5.64.49-.39.26-.71.48-.99.71-.26.21-.51.46-.81.81-1.9 2.29-1.79 4.98-1.69 7.53.06 1.65.13 3.26-.24 4.87-.53 2.39-1.34 4.05-2.61 5.36-1.21 1.27-2.78 2.13-4.89 2.97l-.01.01c-1.79.75-3.3 1.58-4.29 2.69-.89 1-1.37 2.32-1.26 4.19.18 3.22 1.11 4.59 2.64 6.87l.84 1.26c.22.38.39.67.53.96.17.33.32.68.47 1.12 1.9 5.53-.37 8.73-2.53 11.76-1.47 2.07-2.87 4.04-1.91 6.72 1.14 3.16 3.26 4.35 5.57 5.64 2 1.11 4.12 2.29 6.13 4.64.09.09.17.19.24.3.17.28.3.49.4.69.13.23.24.46.37.74.69 1.54 1.06 2.42 1.16 3.46.1 1.05-.11 1.97-.55 3.57-.36 1.33-.46 2.67-.2 3.9.23 1.06.73 2.07 1.58 2.95 2.38 2.47 5.49 2.46 8.54 2.45 3.14-.01 6.23-.02 9.05 2.08l.89.72c2.04 1.69 2.57 3.4 3.1 5.16.44 1.44.89 2.93 2.81 4.28 1.04.74 2.5 1.04 4 1.02 1.73-.03 3.47-.49 4.68-1.24.69-.42 1.16-.74 1.62-1.04 2.46-1.65 4.55-3.05 8.27-2.87 3.72.16 4.9 1.24 7.29 3.42l.1.1c1.16.96 2.44 1.61 3.75 1.84 1.17.2 2.4.05 3.62-.52 2.94-1.4 4.08-3.62 5.18-5.77 1.26-2.46 2.48-4.85 5.69-6.51 3.1-1.6 4.74-1.29 7.6-.76l.48.09c.75.11 1.42.17 2.03.15.57-.01 1.15-.1 1.79-.3.72-.26 1.31-.51 1.8-.84.45-.29.85-.65 1.26-1.17l.08-.1c1.88-2.42 1.78-4.91 1.67-7.4-.13-3.11-.26-6.22 2.33-9.63l.4-.53c.91-1.22 1.66-2.21 3.44-2.7 1.87-.52 3.56-1.07 4.79-1.97 1.1-.8 1.9-1.96 2.22-3.8.63-3.52-.78-5.67-2.17-7.79-1.5-2.3-2.99-4.58-2.83-8.27.07-1.47.13-2.49.47-3.49.37-1.08.97-1.96 2.07-3.06 1.11-1.1 2.01-2.3 2.49-3.59.45-1.19.53-2.5.07-3.92-1.05-3.22-3.81-4.73-6.71-6.33zm-57.52 9.24c1.63-1.61 3.79-3.67 6.03-5.53 3.45-2.88 7.16-5.29 9.75-5.16.28.01.55.04.81.1l.08.01c1.52.31 3.01 1.22 4.09 2.45 1.14 1.29 1.87 2.97 1.78 4.77-.02.27-.05.54-.1.8v.01c-.32 1.68-1.79 4.29-3 6.44-.7 1.25-1.66 1.3-1.47 1.79.26.67 2.4-.85 3.53-.92.34-.02.66-.04 1-.04 2.04-.04 5.63-.11 7.51.28l.2.05c3.67 1.12 4.32 5.39 4.75 8.24l.04.3c.54 3.49.59 6.58-.15 9.49-.75 2.95-2.31 5.65-4.97 8.3l-.13.12c-3.28 3.05-5.73 2.98-9.42 2.87l-1.34-.04c-4.55-.08-9.16-.06-13.75-.04l-4.07.01v.01H52.01V50.39H69.75zm1.17 30.81h4.07c4.61-.02 9.24-.04 13.81.04l1.37.04c2.83.08 4.72.14 6.96-1.93l.04-.05c2.18-2.17 3.45-4.34 4.05-6.69.61-2.4.55-5.05.08-8.11l-.05-.3c-.29-1.96-.74-4.9-2.27-5.42-1.54-.29-4.81-.23-6.68-.19-.28 0-.54.02-.83.04-1.89.12-6.33.41-7-1.29-.41-1.05.54-2.73 1.68-4.76 1.08-1.93 2.4-4.28 2.61-5.4.03-.11.04-.22.05-.33.04-.81-.34-1.63-.92-2.28-.6-.69-1.38-1.18-2.15-1.34l-.05-.01c-.12-.02-.23-.04-.34-.04-1.54-.08-4.46 1.95-7.34 4.35-2.78 2.32-5.49 4.99-7.09 6.62V81.2zm-3.5-27.32H55.51v27.33h11.91V53.88zM46.89 32.02c7.79-7.79 18.55-12.61 30.44-12.61 11.88 0 22.65 4.82 30.44 12.61 7.78 7.79 12.6 18.55 12.6 30.44v.01c-.12 12.02-4.87 22.72-12.59 30.44-7.72 7.72-18.42 12.47-30.44 12.59h-.03c-12.02-.12-22.72-4.87-30.44-12.59-7.72-7.72-12.46-18.42-12.58-30.44l-.01-.01c0-11.89 4.82-22.65 12.61-30.44z"/><path fill="none" d="M0 0h154.62v154.62H0z"/></svg>