<svg xmlns="http://www.w3.org/2000/svg" xml:space="preserve" width="1000" height="1000" shape-rendering="geometricPrecision" text-rendering="geometricPrecision" image-rendering="optimizeQuality" fill-rule="evenodd" clip-rule="evenodd" viewBox="0 0 154.62 154.62"><path fill-rule="nonzero" d="M18.3 118.03a71.929 71.929 0 0 1-9.29-19.14 72.283 72.283 0 0 1-3.28-21.58c0-19.94 8.08-38 21.15-51.06C39.94 13.18 58 5.1 77.94 5.1s37.99 8.08 51.06 21.15c13.06 13.06 21.14 31.12 21.14 51.06s-8.08 37.99-21.14 51.06c-13.07 13.06-31.12 21.15-51.06 21.15-6.87 0-13.51-.96-19.81-2.76a71.946 71.946 0 0 1-17.28-7.48c-5.49 3.83-11.25 6.02-17.01 7.3-6.01 1.33-11.99 1.64-17.64 1.76-.51 0-1.02-.21-1.36-.64-.58-.73-.46-1.8.27-2.39 3.73-2.99 7.01-6.49 9.36-10.96 2.29-4.36 3.71-9.66 3.83-16.32zm101.66-39.7c-.94 0-1.71-.76-1.71-1.7 0-.95.77-1.71 1.71-1.71h12.36c.94 0 1.71.76 1.71 1.71 0 .94-.77 1.7-1.71 1.7h-12.36zm-6.79 10.69a1.699 1.699 0 1 1 2.21-2.58l10.11 8.66c.71.61.8 1.69.19 2.4-.61.72-1.69.8-2.4.19l-10.11-8.67zm2.21-22.92c-.71.61-1.79.52-2.4-.19-.61-.71-.52-1.79.19-2.4l10.11-8.66c.71-.61 1.79-.53 2.4.18.61.72.52 1.79-.19 2.4l-10.11 8.67zm-11.99 1.01c.61-.26 1.25-.4 1.92-.4 2.01 0 3.76 1.23 4.98 3.23 1.05 1.74 1.71 4.11 1.71 6.69 0 2.57-.66 4.94-1.71 6.68-1.22 2-2.97 3.23-4.98 3.23-.67 0-1.31-.14-1.92-.4v17.44c.01 2.62-.66 4.68-1.72 6.14-.88 1.2-2.02 2.01-3.3 2.4-1.26.39-2.63.37-3.99-.06-1.72-.55-3.42-1.77-4.77-3.66-10.77-15.03-27.56-15.44-34.06-14.97.03 4.78.37 11.62-.09 15.77-.32 2.85-1.53 4.74-3.1 5.76-.93.61-1.97.9-3.04.9-1.03 0-2.06-.28-3.01-.82-1.84-1.03-3.37-3.04-3.84-5.83l-2.05-15.13c-8-.93-16.8-4.68-16.29-16.77-.93-21.86 28.62-16.45 28.7-16.44.08.01 23.21 4.29 36.78-14.65 1.35-1.89 3.05-3.12 4.77-3.67 1.36-.43 2.73-.45 3.99-.06 1.28.4 2.42 1.2 3.3 2.41 1.06 1.46 1.73 3.51 1.72 6.13v16.08zm0 14.68c.29.42.6.76.94 1 .31.22.64.34.98.34.74 0 1.48-.6 2.07-1.58.74-1.22 1.21-2.96 1.21-4.92s-.47-3.7-1.21-4.93c-.59-.98-1.33-1.58-2.07-1.58-.34 0-.67.12-.98.34-.34.24-.65.58-.94 1v10.33zM43.88 94.33l1.95 14.33c.28 1.68 1.14 2.86 2.14 3.42.44.25.91.38 1.35.38.42 0 .83-.11 1.19-.35.76-.49 1.36-1.54 1.56-3.23l.07-15.03c-1.35.2-4.51.59-8.26.48zm9.01-30v25.96c3.57-.5 21.58-2.24 34.98 10.86V53.47c-13.4 13.1-31.41 11.36-34.98 10.86zm-3.41 26.41V63.87c-6.59-.62-22.59-.69-21.95 13.36v.15c-.64 14.06 15.36 13.99 21.95 13.36zm41.8-41.08v55.3c.38.47.74.95 1.1 1.45.91 1.28 1.98 2.08 3.03 2.41.68.22 1.36.24 1.96.05.58-.18 1.12-.56 1.54-1.15.66-.91 1.08-2.28 1.08-4.14V51.03c0-1.85-.42-3.23-1.08-4.13-.42-.59-.96-.98-1.54-1.16-.6-.18-1.28-.17-1.96.05-1.05.33-2.12 1.14-3.03 2.41-.36.5-.72.99-1.1 1.46zm-49.6 86.13a68.553 68.553 0 0 0 17.38 7.7c6 1.7 12.33 2.62 18.88 2.62 18.99 0 36.19-7.7 48.64-20.15 12.45-12.45 20.15-29.65 20.15-48.65s-7.7-36.2-20.15-48.65C114.13 16.21 96.93 8.51 77.94 8.51c-19 0-36.2 7.7-48.65 20.15C16.84 41.11 9.14 58.31 9.14 77.31c0 7.17 1.09 14.08 3.12 20.56 2.1 6.72 5.21 13 9.14 18.66.19.28.31.62.3.98-.05 7.52-1.63 13.5-4.22 18.42-1.79 3.41-4.07 6.31-6.65 8.85 4.03-.2 8.16-.61 12.28-1.52 5.65-1.25 11.31-3.46 16.66-7.4.58-.42 1.33-.42 1.91-.07z"/><path fill="none" d="M0 0h154.62v154.62H0z"/></svg>