<svg xmlns="http://www.w3.org/2000/svg" xml:space="preserve" width="1000" height="1000" shape-rendering="geometricPrecision" text-rendering="geometricPrecision" image-rendering="optimizeQuality" fill-rule="evenodd" clip-rule="evenodd" viewBox="0 0 124.2 124.2"><path fill-rule="nonzero" d="M10.25 43.7c-.29-.61-1.84-3.97-2.34-8.41a5.83 5.83 0 0 1-2.97-1.59 5.779 5.779 0 0 1-1.71-4.12c0-1.6.65-3.06 1.71-4.12a5.814 5.814 0 0 1 4.12-1.71c.21 0 .43.01.65.04.35-.72.76-1.44 1.23-2.16.48-.73 1.02-1.45 1.62-2.15-.08-.2-.16-.4-.23-.6a5.812 5.812 0 0 1 1.42-5.93 5.813 5.813 0 0 1 6.83-1.04c.47.25.9.56 1.28.92a42.794 42.794 0 0 1 3.8-1.51l1.3-.44a5.773 5.773 0 0 1 1.67-4.78v-.01a5.838 5.838 0 0 1 4.12-1.71c1.46 0 2.8.55 3.83 1.45.67.58 1.2 1.31 1.54 2.15.81-.16 1.61-.3 2.41-.43.79-.12 1.56-.24 2.33-.34.11-1.42.73-2.7 1.69-3.66a5.796 5.796 0 0 1 4.12-1.71c1.61 0 3.06.65 4.12 1.71.81.81 1.39 1.87 1.61 3.04.85.03 1.68.06 2.48.11.81.05 1.6.11 2.39.18.29-.95.83-1.8 1.53-2.47a5.797 5.797 0 0 1 4.03-1.63c1.61 0 3.07.65 4.12 1.71a5.796 5.796 0 0 1 1.71 4.12l-.01.29c.8.21 1.59.43 2.36.66.73.21 1.46.44 2.18.68.36-.74.87-1.38 1.49-1.9a5.805 5.805 0 0 1 7.86.34 5.856 5.856 0 0 1 1.71 4.12c0 .6-.1 1.18-.27 1.74l-.03.1 1.79.9c.6.31 1.22.65 1.85 1.01l.79.45c.36-.35.77-.66 1.22-.9.83-.46 1.79-.72 2.8-.72 1.61 0 3.07.65 4.12 1.71a5.838 5.838 0 0 1 1.35 6.14c-.08.21-.17.41-.27.6.51.47 1.02.95 1.52 1.44.49.48.98.97 1.45 1.47.22-.13.45-.24.69-.33a5.796 5.796 0 0 1 6.28 1.29 5.838 5.838 0 0 1 1.71 4.12c0 1.01-.27 1.97-.73 2.8-.24.44-.53.85-.88 1.21.42.67.83 1.35 1.21 2.03.4.69.78 1.4 1.15 2.11.34-.06.7-.1 1.05-.1 1.61 0 3.06.66 4.12 1.71a5.856 5.856 0 0 1 1.71 4.12c0 1.28-.42 2.46-1.12 3.42-.44.62-1.01 1.14-1.67 1.55a52.911 52.911 0 0 1 1.02 4.71c1.24.2 2.36.78 3.21 1.64a5.838 5.838 0 0 1 1.71 4.12c0 1.56-.62 2.97-1.62 4.02-.71.74-1.62 1.3-2.63 1.59l-.04.61c-.03.66-.08 1.26-.12 1.8-.05.55-.12 1.16-.21 1.82l-.11.81c.62.42 1.15.97 1.56 1.6.61.91.96 2.01.96 3.19 0 1.6-.66 3.06-1.71 4.12-.99.98-2.33 1.62-3.82 1.7-.33.76-.67 1.5-1.03 2.22-.32.65-.65 1.28-1 1.91a5.784 5.784 0 0 1 1.62 4.03c0 1.61-.65 3.07-1.7 4.12a5.838 5.838 0 0 1-4.12 1.71c-.67 0-1.32-.12-1.92-.33a9 9 0 0 1-.55-.22c-.54.59-1.08 1.17-1.62 1.72a51 51 0 0 1-1.67 1.64 5.862 5.862 0 0 1 .75 2.86c0 1.61-.65 3.07-1.71 4.12a5.82 5.82 0 0 1-4.12 1.71c-1.02 0-1.98-.27-2.82-.74-.45-.24-.85-.55-1.21-.89-1.63 1.02-2.49 1.44-2.49 1.44-.49.28-1 .56-1.54.83l-.65.31v.15c0 1.61-.65 3.07-1.7 4.12a5.856 5.856 0 0 1-4.12 1.71c-1.39 0-2.66-.49-3.66-1.3h-.01c-.7-.57-1.27-1.31-1.65-2.15a25.36 25.36 0 0 1-5.62-.46c-.41.66-.95 1.24-1.58 1.69-.95.69-2.12 1.09-3.38 1.09-1.6 0-3.06-.66-4.12-1.71a5.82 5.82 0 0 1-1.71-4.12c0-.52.08-1.03.21-1.54l.09-.27c-.62-.5-1.22-1.05-1.8-1.64-.54-.55-1.07-1.14-1.59-1.78l-.4.15c-.57.19-1.18.29-1.8.29-1.6 0-3.06-.66-4.12-1.71a5.811 5.811 0 0 1-1.7-4.12c0-1.28.41-2.47 1.12-3.44.44-.6 1-1.12 1.64-1.51-.2-.67-.38-1.36-.55-2.07-.18-.75-.34-1.52-.49-2.31a5.816 5.816 0 0 1-3.42-1.67 5.779 5.779 0 0 1-1.71-4.12c0-1.53.59-2.92 1.56-3.96.67-.72 1.51-1.26 2.45-1.57l-.25-3.64a5.82 5.82 0 0 1-3.05-1.62 5.755 5.755 0 0 1-1.71-4.11c0-1.51.57-2.89 1.52-3.92.63-.7 1.44-1.25 2.36-1.57-.08-.68-.15-1.36-.24-2.06l-.21-1.54c-1.57-.02-3-.67-4.04-1.71a5.779 5.779 0 0 1-1.71-4.12c0-1.18.36-2.29.97-3.21.3-.46.67-.87 1.08-1.23-.37-.42-.78-.82-1.24-1.19-.56-.47-1.19-.9-1.89-1.31-.38.49-.84.92-1.36 1.27-.93.62-2.05.98-3.24.98-1.6 0-3.06-.65-4.12-1.71a5.787 5.787 0 0 1-1.53-2.69c-.86.17-1.66.42-2.42.74-.91.38-1.74.85-2.5 1.4.11.32.21.65.3.99.17.72.26 1.45.26 2.2 0 2.46-.96 4.7-2.53 6.36a9.24 9.24 0 0 1-5.1 2.77c-.07.38-.12.75-.16 1.1-.07.64-.09 1.21-.06 1.66.02.46.05 1.07.07 1.79l.03 1.2c1.02.27 1.94.82 2.65 1.56a5.772 5.772 0 0 1 1.66 4.06c0 1.58-.63 3.01-1.66 4.06a5.71 5.71 0 0 1-2.65 1.56l-.07 5.43h4.69v10.39h9.96v12.17H24.3v19.71H12.13v-19.71H2.17V90.48h9.96V80.09h4.65l.07-5.37a5.79 5.79 0 0 1-3.41-2.27 5.792 5.792 0 0 1-.47-6.06c.43-.83 1.04-1.54 1.79-2.08.49-.35 1.03-.63 1.61-.81.16-.05.31-.1.47-.13l-.03-1.07c-.01-.61-.04-1.19-.07-1.7-.03-.61-.01-1.33.07-2.13l.1-.74c-.45-.06-.88-.15-1.31-.27-.83-.24-1.63-.6-2.35-1.05a9.34 9.34 0 0 1-4.37-7.87c0-1.12.21-2.2.57-3.2.22-.58.49-1.13.8-1.64zm.5-8.55c.32 2.7 1.06 4.91 1.57 6.19.6-.48 1.25-.9 1.96-1.22 1.18-.55 2.5-.85 3.88-.85 1.75 0 3.39.49 4.8 1.34.97.59 1.83 1.35 2.52 2.24.86-.59 1.79-1.11 2.8-1.53 1.08-.45 2.25-.79 3.52-.99.28-1.07.84-2.01 1.61-2.75a5.832 5.832 0 0 1 8.15.08 5.861 5.861 0 0 1 1.71 4.13c0 .32-.03.64-.08.95.95.54 1.8 1.11 2.56 1.74.77.63 1.44 1.33 2.05 2.11.37-.07.75-.11 1.15-.11 1.6 0 3.06.65 4.12 1.7a5.847 5.847 0 0 1 .49 7.68c-.51.66-1.16 1.21-1.91 1.6a93.36 93.36 0 0 1 .49 3.99c1.26.19 2.39.79 3.25 1.65a5.82 5.82 0 0 1 1.71 4.12c0 1.54-.61 2.94-1.59 3.99-.67.71-1.52 1.25-2.47 1.56l.25 3.62c1.2.21 2.27.79 3.1 1.61a5.847 5.847 0 0 1 1.7 4.12c0 1.49-.55 2.84-1.48 3.88-.6.68-1.36 1.21-2.22 1.55.13.7.27 1.37.43 2.02.15.63.32 1.25.49 1.85l.36-.01c1.61 0 3.07.65 4.12 1.71a5.814 5.814 0 0 1 1.71 4.12c0 .95-.23 1.85-.63 2.64-.2.39-.44.75-.71 1.07.43.52.87 1.01 1.32 1.47.43.43.86.83 1.3 1.21.34-.32.72-.6 1.13-.83.86-.49 1.84-.77 2.88-.77 1.61 0 3.07.65 4.12 1.71a5.814 5.814 0 0 1 1.71 4.12l-.01.32c.69.12 1.4.21 2.11.27.72.06 1.44.09 2.15.09a5.85 5.85 0 0 1 1.69-3.67h.01a5.796 5.796 0 0 1 4.12-1.71c1.35 0 2.61.47 3.6 1.25.57.45 1.06 1.02 1.43 1.66l.19-.09c.46-.23.92-.48 1.36-.74l.02-.01s.99-.51 2.39-1.38l-.06-.19c-.15-.51-.23-1.05-.23-1.6 0-1.6.66-3.06 1.71-4.12h.01a5.773 5.773 0 0 1 4.11-1.71c.81 0 1.58.17 2.29.47.29.12.57.27.83.44.54-.5 1.07-1.02 1.6-1.56v-.01c.48-.49.97-1 1.45-1.53-.23-.3-.42-.62-.58-.96a5.796 5.796 0 0 1 1.13-6.64 5.796 5.796 0 0 1 5.76-1.47l.16.05c.29-.54.58-1.09.86-1.65.25-.51.49-1.03.72-1.55-.71-.35-1.34-.84-1.86-1.44a5.808 5.808 0 0 1 .29-7.92v-.01a5.83 5.83 0 0 1 4.71-1.67l.02-.16c.06-.5.13-1.06.18-1.7.06-.64.1-1.22.13-1.72l.02-.37c-1.1-.25-2.08-.8-2.85-1.57a5.779 5.779 0 0 1-1.71-4.12c0-1.53.59-2.93 1.56-3.97.64-.68 1.44-1.21 2.34-1.53a51.672 51.672 0 0 0-.89-4.12l-.33.01c-1.61 0-3.06-.66-4.12-1.71a5.779 5.779 0 0 1-1.71-4.12c0-1.16.34-2.25.94-3.17.34-.52.76-.99 1.25-1.38-.33-.64-.67-1.27-1.02-1.89-.38-.66-.76-1.29-1.14-1.91l-.21.06c-.53.15-1.07.24-1.62.24-1.61 0-3.06-.66-4.12-1.71a5.796 5.796 0 0 1-1.71-4.12c0-.82.17-1.59.47-2.3.13-.29.27-.57.44-.83-.45-.48-.91-.94-1.36-1.39-.46-.45-.93-.89-1.4-1.32-.29.2-.59.38-.92.52-.74.35-1.56.54-2.42.54-1.61 0-3.06-.66-4.12-1.71a5.779 5.779 0 0 1-1.47-5.75l.05-.18-.67-.39c-.57-.32-1.15-.64-1.75-.94l-2.04-1.02c-.38.36-.81.67-1.28.91-.81.43-1.73.67-2.7.67-1.61 0-3.06-.65-4.12-1.71-1.01-1-1.65-2.37-1.7-3.89a83.429 83.429 0 0 0-4.78-1.42c-.4.67-.94 1.25-1.56 1.71a5.84 5.84 0 0 1-3.43 1.12c-1.6 0-3.06-.66-4.12-1.71-.81-.8-1.38-1.85-1.6-3.01a62.422 62.422 0 0 0-4.89-.29c-.31.97-.86 1.83-1.59 2.51a5.838 5.838 0 0 1-3.96 1.55 5.819 5.819 0 0 1-5.33-3.48c-.8.1-1.58.22-2.37.35-.79.12-1.6.27-2.42.43a5.843 5.843 0 0 1-1.68 3.54 5.796 5.796 0 0 1-4.12 1.71c-1.21 0-2.33-.37-3.27-1.01-.59-.4-1.1-.9-1.51-1.49l-1.39.47c-.85.29-1.63.59-2.34.88l-.84.36.03.09c.17.56.27 1.14.27 1.73 0 1.61-.66 3.07-1.71 4.12a5.82 5.82 0 0 1-6.75 1.08c-.3-.16-.59-.34-.86-.54-.4.48-.75.97-1.07 1.46-.35.52-.66 1.06-.93 1.6.56.39 1.05.88 1.44 1.43.67.95 1.07 2.11 1.07 3.36 0 1.57-.62 2.99-1.64 4.04a5.75 5.75 0 0 1-2.5 1.53zM9.06 26.6c-.83 0-1.57.33-2.11.87a2.96 2.96 0 0 0-.87 2.11c0 .82.33 1.57.87 2.11.54.54 1.28.87 2.11.87h.11c.8-.03 1.52-.37 2.04-.91.51-.53.83-1.26.83-2.07 0-.64-.2-1.24-.54-1.72-.35-.5-.86-.89-1.44-1.09a2.776 2.776 0 0 0-1-.17zm9.11 56.34h-3.19v10.39H5.02v6.47h9.96v19.71h6.47V99.8h9.96v-6.47h-9.96V82.94h-3.28zm-.01-16.88c-.33 0-.64.05-.92.14-.3.09-.58.24-.83.42-.38.27-.7.64-.91 1.06-.21.4-.32.86-.32 1.36 0 .66.21 1.26.56 1.75.37.5.88.89 1.48 1.09.16.05.32.09.46.11.14.02.3.03.48.03l.08.01c.81-.02 1.53-.37 2.06-.91.52-.53.84-1.27.84-2.08s-.32-1.55-.84-2.08c-.53-.54-1.25-.88-2.06-.9h-.08zM37.44 38.8c-.8 0-1.53.32-2.06.83-.54.52-.89 1.23-.92 2.03l-.01.13c.01.82.34 1.56.88 2.1s1.28.88 2.11.88a2.968 2.968 0 0 0 2.76-1.85c.07-.16.13-.35.17-.55.03-.19.05-.38.05-.58 0-.83-.33-1.58-.87-2.11-.54-.54-1.29-.88-2.11-.88zm11.51 10.52c-.21 0-.41.02-.6.06-.17.03-.36.09-.56.17a2.99 2.99 0 0 0-1.83 2.75c0 .83.34 1.57.88 2.11.53.54 1.28.88 2.11.88.15 0 .28-.01.38-.02.13-.02.25-.05.38-.08.64-.17 1.2-.55 1.6-1.07a2.979 2.979 0 0 0-.25-3.92c-.55-.54-1.29-.88-2.11-.88zm2.32 14.92-.32.01c-.74.07-1.41.43-1.89.96s-.77 1.23-.77 2.01c0 .82.33 1.56.87 2.1.54.55 1.28.88 2.11.88h.18c.79-.05 1.49-.4 1.99-.94.5-.53.81-1.25.81-2.04 0-.83-.33-1.58-.87-2.11-.54-.54-1.29-.87-2.11-.87zm1 14.9-.22.01c-.77.05-1.47.4-1.97.94-.49.53-.79 1.25-.79 2.03 0 .83.33 1.57.87 2.11.53.54 1.28.88 2.11.88l.34-.02c.74-.08 1.41-.45 1.88-.98.47-.52.76-1.22.76-1.99 0-.82-.33-1.57-.87-2.1-.54-.54-1.29-.88-2.11-.88zm3.4 15.12c-.18 0-.33.01-.46.03-.15.03-.3.06-.44.11a2.962 2.962 0 0 0-2.08 2.84c0 .82.34 1.57.88 2.11.53.54 1.28.87 2.1.87.33 0 .64-.05.92-.14.3-.09.58-.24.83-.42.38-.28.7-.64.91-1.07.21-.4.32-.86.32-1.35 0-.83-.33-1.57-.86-2.11-.55-.54-1.29-.87-2.12-.87zm11.12 10.62c-.54 0-1.05.14-1.48.38-.44.26-.82.63-1.09 1.08-.13.23-.24.48-.31.73-.06.24-.1.5-.1.79 0 .82.33 1.57.87 2.11.54.54 1.28.87 2.11.87.65 0 1.25-.2 1.73-.55.5-.35.89-.87 1.09-1.46.06-.16.1-.32.13-.47.02-.15.03-.32.03-.5 0-.83-.33-1.57-.86-2.11a3.02 3.02 0 0 0-2.12-.87zm15.9 1.13c-.83 0-1.58.33-2.11.87h-.01c-.53.54-.87 1.28-.87 2.11l.02.31.05.31a2.965 2.965 0 0 0 2.92 2.36c.82 0 1.56-.33 2.1-.87a2.987 2.987 0 0 0 .86-2.47c-.01-.1-.04-.22-.07-.34-.15-.66-.53-1.23-1.05-1.64-.51-.4-1.15-.64-1.84-.64zm14.53-6.93c-.82 0-1.57.33-2.1.87h-.01a2.96 2.96 0 0 0-.87 2.11c0 .29.04.56.11.82.08.27.19.52.34.75.27.43.64.79 1.08 1.04.43.24.92.37 1.45.37.83 0 1.57-.33 2.11-.87.54-.54.87-1.29.87-2.11 0-.4-.07-.78-.2-1.11a3.23 3.23 0 0 0-.62-.96c-.28-.28-.61-.52-.98-.68-.36-.15-.75-.23-1.18-.23zm10.84-11.5c-.83 0-1.58.33-2.11.86l-.01.01a3.003 3.003 0 0 0-.58 3.4c.2.41.49.76.84 1.04.26.21.55.38.87.49.3.1.63.16.99.16a2.987 2.987 0 0 0 1.62-5.49c-.23-.15-.5-.27-.78-.36-.26-.07-.54-.11-.84-.11zm5.93-13.99c-.83 0-1.57.34-2.11.87l-.01.01c-.53.53-.86 1.28-.86 2.11 0 .74.27 1.43.72 1.95.46.53 1.1.89 1.83 1 .16.02.27.02.43.03.82 0 1.57-.34 2.11-.88.54-.54.87-1.28.87-2.1 0-.61-.18-1.17-.49-1.64-.31-.48-.77-.87-1.3-1.1a2.815 2.815 0 0 0-1.19-.25zm2.21-15.44-.22.01a2.981 2.981 0 0 0-2.76 2.98c0 .82.33 1.57.87 2.11.54.54 1.28.87 2.11.87h.14c.79-.03 1.5-.38 2.01-.92.52-.53.83-1.26.83-2.06 0-.83-.33-1.57-.87-2.11a3.03 3.03 0 0 0-2.11-.88zm-3.15-15.43c-.23 0-.44.02-.62.06-.22.05-.42.11-.6.19-.52.23-.97.62-1.29 1.11-.3.46-.47 1.02-.47 1.62 0 .82.33 1.57.87 2.11.53.54 1.28.87 2.11.87.18 0 .33-.01.46-.03.16-.02.31-.06.46-.11.6-.19 1.12-.58 1.49-1.09.36-.49.57-1.09.57-1.75 0-.83-.33-1.57-.87-2.11-.54-.54-1.29-.87-2.11-.87zm-7.63-13.88c-.4 0-.78.07-1.11.2-.35.14-.67.35-.94.61-.3.28-.53.61-.7.99-.15.36-.23.76-.23 1.18 0 .82.33 1.57.87 2.11.53.54 1.28.87 2.11.87.3 0 .58-.04.83-.11.27-.08.53-.2.76-.35.43-.27.78-.65 1.02-1.09.24-.42.37-.91.37-1.43 0-.83-.33-1.58-.87-2.11-.54-.54-1.29-.87-2.11-.87zM94.4 18.23a2.974 2.974 0 0 0-2.52 1.38c-.15.23-.27.49-.35.76-.07.26-.11.54-.11.84 0 .82.33 1.57.87 2.11.54.54 1.28.87 2.11.87.45 0 .87-.1 1.25-.27.39-.18.73-.44 1.01-.76.23-.27.41-.58.54-.91.11-.32.18-.67.18-1.04 0-.83-.33-1.57-.87-2.11-.54-.54-1.29-.87-2.11-.87zM80.42 9.82c-.73 0-1.4.26-1.92.7-.52.44-.9 1.06-1.02 1.76l-.04.25v.27c0 .82.33 1.57.87 2.11.54.54 1.28.87 2.11.87.51 0 .98-.12 1.39-.33.42-.22.79-.55 1.07-.95.16-.25.3-.52.39-.8.08-.28.13-.58.13-.9 0-.82-.33-1.57-.87-2.11a3.02 3.02 0 0 0-2.11-.87zM64.83 5.63c-.8 0-1.53.31-2.06.82-.54.52-.89 1.24-.92 2.04l-.01.12c.01.82.34 1.57.88 2.11.54.54 1.28.87 2.11.87.66 0 1.27-.21 1.76-.57.51-.36.89-.89 1.09-1.49.04-.15.08-.3.1-.45.02-.15.03-.31.03-.47 0-.83-.33-1.57-.87-2.11-.54-.54-1.29-.87-2.11-.87zm-16.16-.94c-.83 0-1.58.33-2.11.86l-.01.01c-.53.53-.86 1.28-.86 2.11v.27l.04.27c.13.7.5 1.31 1.02 1.75.52.43 1.18.69 1.92.69.78 0 1.5-.3 2.03-.79.53-.5.89-1.2.94-1.97l.01-.22c0-.83-.33-1.58-.87-2.11-.55-.54-1.29-.87-2.11-.87zM32.75 7.23c-.83 0-1.58.33-2.11.87l-.01.01c-.53.53-.87 1.28-.87 2.1a2.737 2.737 0 0 0 .21 1.1c.23.57.61 1.05 1.1 1.38.47.32 1.05.5 1.68.5.82 0 1.57-.33 2.1-.87.54-.54.88-1.28.88-2.11l-.01-.2-.01-.19c-.1-.74-.47-1.39-1-1.86-.52-.45-1.21-.73-1.96-.73zm-14.88 6.86c-.83 0-1.57.33-2.11.86l-.01.01c-.53.54-.86 1.28-.86 2.11 0 .33.05.64.14.93.1.3.25.58.43.83a2.968 2.968 0 0 0 2.41 1.22c.82 0 1.57-.33 2.11-.87.54-.54.87-1.29.87-2.11 0-.32-.05-.62-.13-.89-.09-.29-.22-.56-.39-.8-.27-.4-.64-.73-1.07-.96-.41-.21-.89-.33-1.39-.33zm.29 28.02c-.97 0-1.88.21-2.69.59a6.5 6.5 0 0 0-2.21 1.67c-.48.57-.87 1.23-1.14 1.95-.25.69-.39 1.44-.39 2.22 0 1.14.29 2.2.8 3.11A6.5 6.5 0 0 0 14.75 54a6.487 6.487 0 0 0 3.41.97l.37-.01a6.4 6.4 0 0 0 4.3-2 6.412 6.412 0 0 0 1.76-4.42c0-.54-.07-1.05-.18-1.53-.12-.5-.31-.98-.55-1.44a6.347 6.347 0 0 0-2.37-2.53c-.96-.59-2.1-.93-3.33-.93z"/><path fill="none" d="M0 0h124.2v124.2H0z"/></svg>