<svg xmlns="http://www.w3.org/2000/svg" xml:space="preserve" width="1000" height="1000" shape-rendering="geometricPrecision" text-rendering="geometricPrecision" image-rendering="optimizeQuality" fill-rule="evenodd" clip-rule="evenodd" viewBox="0 0 110.74 110.74"><path fill-rule="nonzero" d="m45.28 62.18-.35-.25-1.39 3.38 10.6 6.74v-6.96l-.23-.02c-3.14-.3-6.25-1.22-8.28-2.65l-.35-.24zm5.64 28.33h3.22v-2.73L40.76 68.35H38.7c-5.24 0-10 2.15-13.45 5.6-3.46 3.45-5.6 8.22-5.6 13.45v19.05H35.2V87.4a1.23 1.23 0 1 1 2.46 0v19.05h35.42V87.4a1.23 1.23 0 1 1 2.46 0v19.05h15.55V87.4c0-5.23-2.14-10-5.6-13.45-3.45-3.45-8.21-5.6-13.45-5.6h-2.06L56.6 87.78v2.73h3.22v2.46H56.6v5.76h-2.46v-5.76h-3.22v-2.46zm-7.18-22.16 11.63 16.89L67 68.35h-.02l-10.93 6.96-.01.01h-.01l-.01.01-.02.01-.01.01-.02.01-.02.01-.01.01-.02.01h-.01l-.02.01-.03.01-.08.04-.03.01-.06.01-.03.01-.05.01h-.01l-.02.01h-.03l-.03.01h-.09v.01h-.12v-.01h-.09l-.03-.01h-.03l-.02-.01h-.01l-.05-.01-.03-.01-.06-.01-.03-.01-.08-.04-.03-.01-.02-.01h-.01l-.02-.01-.01-.01-.02-.01h-.01l-.01-.01-.01-.01-.02-.01-.01-.01h-.01l-.01-.01-10.94-6.96h-.01zm26.21-2.46h2.09c5.92 0 11.3 2.42 15.19 6.32 3.9 3.9 6.32 9.28 6.32 15.19v20.28c0 .68-.55 1.24-1.23 1.24h-73.9c-.68 0-1.23-.56-1.23-1.24V87.4c0-5.91 2.42-11.29 6.31-15.19 3.9-3.9 9.28-6.32 15.2-6.32h2.09c-.01-.19.01-.38.09-.56l2.08-5.04a26.27 26.27 0 0 1-2.07-2.15 25.594 25.594 0 0 1-3.34-4.97c-.81-1.6-.78-2.77-.74-4.24.01-.29.02-.6.02-.89.01-3.29 0-6.59-.01-9.88 0-3.78-.01-7.56 0-11.34 0-.81.09-1.43.27-2.03.17-.57.41-1.09.73-1.76 1.79-3.72 4.22-6.24 7.22-7.81 2.95-1.56 6.42-2.17 10.33-2.11 3.98-.06 7.55.6 10.57 2.25 3.06 1.66 5.51 4.31 7.22 8.17.84 1.9.81 3.17.77 4.85-.01.36-.02.74-.02 1.12l.01 6.64c.01 4.49.02 8.98.02 13.48-.01 2.58-.63 3.52-1.85 5.4l-.23.34c-1.19 1.84-2.54 3.5-4.07 4.94l2.07 5.03c.08.18.1.37.09.56zM56.6 72.05l10.6-6.74-1.39-3.36a22.81 22.81 0 0 1-3.34 2.06l-.03.02c-1.6.73-3.66 1.1-5.84 1.15v6.87zM55.37 1.82c5.85 0 11.19.38 15.07.99 4.45.7 7.21 1.94 7.21 3.56 0 1.61-2.76 2.85-7.21 3.55-3.88.61-9.22.99-15.07.99-5.86 0-11.19-.38-15.07-.99-4.45-.7-7.21-1.94-7.21-3.55 0-1.62 2.76-2.86 7.21-3.56 3.88-.61 9.21-.99 15.07-.99zm14.69 3.42c-3.73-.59-8.92-.95-14.69-.95s-10.96.36-14.69.95c-3.17.5-5.12.91-5.12 1.13 0 .21 1.95.63 5.12 1.12 3.73.59 8.92.95 14.69.95s10.96-.36 14.69-.95c3.17-.49 5.12-.91 5.12-1.12 0-.22-1.95-.63-5.12-1.13zm-27.3 51.31c1.17 1.36 2.5 2.59 3.95 3.63l.33.23c1.68 1.18 4.36 1.96 7.11 2.22 2.7.26 5.41.02 7.26-.84 1.76-.88 3.31-1.98 4.68-3.27 1.4-1.31 2.62-2.82 3.71-4.5l.23-.34c.96-1.48 1.45-2.23 1.45-4.06.01-4.5 0-8.99-.01-13.48l-.01-6.64c0-.43.01-.81.02-1.17.03-1.36.05-2.39-.57-3.81-1.48-3.33-3.57-5.6-6.15-7.01-2.62-1.43-5.79-2-9.37-1.94h-.04c-3.52-.06-6.6.47-9.17 1.82-2.53 1.33-4.6 3.49-6.15 6.71-.27.56-.46.98-.58 1.39-.12.38-.17.78-.18 1.33-.01 3.78 0 7.56.01 11.34 0 3.29.01 6.59 0 9.88 0 .36-.01.67-.02.96-.03 1.11-.05 2 .49 3.05.81 1.6 1.83 3.12 3.01 4.5z"/><path fill="none" d="M0 0h110.74v110.74H0z"/></svg>