<svg xmlns="http://www.w3.org/2000/svg" xml:space="preserve" width="1000" height="1000" shape-rendering="geometricPrecision" text-rendering="geometricPrecision" image-rendering="optimizeQuality" fill-rule="evenodd" clip-rule="evenodd" viewBox="0 0 110.3 110.3"><path fill-rule="nonzero" d="m93.01 76.19-6.52-14.06h-9.28v5.48h2.65c.67 0 1.22.55 1.22 1.22 0 .67-.55 1.21-1.22 1.21H27.55c-.68 0-1.22-.54-1.22-1.21 0-.67.54-1.22 1.22-1.22h3.03v-5.48h-9.57l-6.5 14.06h78.5zM79.57 2.31l18.1 17.4a2.762 2.762 0 0 1 .07 3.9l-7.03 7.32c-.52.53-1.22.81-1.92.82-.7.02-1.42-.24-1.96-.76l-2.27-2.18-1.47 1.42c-1.98 1.9-3.97 3.8-5.9 5.72.01.07.02.14.02.22V59.7h10.83l7.72 16.65-.09.04v28.2c0 1.15-.47 2.2-1.22 2.96-.76.75-1.81 1.22-2.96 1.22h-75.5c-1.15 0-2.2-.47-2.96-1.22a4.214 4.214 0 0 1-1.22-2.96V76.28h-.02l.02-.03v-.06h.02l7.63-16.49h11.12V30.82c0-.76.31-1.45.81-1.95l.01-.01c.5-.5 1.19-.81 1.94-.81h11.55l5.6-6.65c.86-1.03 1.82-2.2 2.78-3.37l1.77-2.15c2.14-2.58 3.18-2.54 5.55-2.43.45.02.96.05 1.49.05h6.55c-.49-.52-.75-1.19-.76-1.86-.02-.7.24-1.42.76-1.97l7.03-7.31c.53-.54 1.22-.82 1.92-.83.71-.01 1.42.24 1.97.77l.02.01zm3.24 24.82-1.35-1.3-10.84-9.91h-8.54c-.65 0-1.15-.02-1.6-.04-1.53-.07-2.2-.1-3.57 1.55l-1.77 2.14c-.89 1.09-1.78 2.17-2.8 3.39l-4.28 5.09h16.47c.67 0 1.21.55 1.21 1.22 0 .67-.54 1.22-1.21 1.22H53.37c-.35.56-.69 1.34-.87 2.16-.15.67-.18 1.35 0 1.92.16.48.51.9 1.15 1.18.64.28 1.55.42 2.81.38 3.37-.13 6.84-.11 10.27-.1l3.2.02c.51 0 .94.01 1.32.03 1.44.05 2.29.08 3.55-1.18 2.17-2.17 4.4-4.3 6.61-6.42l1.4-1.35zm13.17-5.67L77.85 4.03a.293.293 0 0 0-.22-.07c-.08 0-.17.03-.23.1l-7.02 7.3c-.06.06-.09.15-.09.23 0 .09.04.17.1.24l12.93 12.42 3.07 2.81-.07.07 2.21 2.12a.3.3 0 0 0 .22.08c.08 0 .16-.04.23-.1l7.01-7.3c.07-.07.1-.15.1-.24a.357.357 0 0 0-.11-.23zm-21.2 16.52c-1.15.62-2.18.58-3.61.52-.39-.01-.82-.03-1.24-.03l-3.21-.01c-3.39-.02-6.82-.04-10.18.09-1.63.06-2.89-.16-3.85-.58-1.37-.59-2.13-1.54-2.5-2.64-.33-1.02-.3-2.14-.06-3.2.13-.57.31-1.13.53-1.64H33.34c-.09 0-.17.04-.23.09a.34.34 0 0 0-.09.24v36.79h41.76V37.98zM42.42 53.52a1.217 1.217 0 0 1 1.69-1.75l6.76 6.48 12.81-12.4c.48-.46 1.25-.45 1.72.03.46.48.45 1.25-.03 1.71l-14.5 14.03-8.45-8.1zm50.82 25.1h-79v25.97c0 .48.2.92.51 1.24.32.31.76.51 1.24.51h75.5a1.755 1.755 0 0 0 1.75-1.75V78.62z"/><path fill="none" d="M0 0h110.3v110.3H0z"/></svg>